<svg width="141" height="32" viewBox="0 0 141 32" fill="none" xmlns="http://www.w3.org/2000/svg">
<path fill-rule="evenodd" clip-rule="evenodd" d="M47.9688 25.3205V11.1605H51.2688V12.0205C51.8488 11.3805 52.7088 11.0005 53.9488 11.0005C56.2999 11.0005 57.9989 12.5019 58.3987 15.016C58.808 12.9763 60.3107 11.0005 63.3408 11.0005C67.1608 11.0005 68.4208 13.8805 68.4208 16.0005C68.4208 16.4605 68.4008 16.7405 68.3808 16.9805H61.4408C61.6408 18.1005 62.3408 18.7405 63.5408 18.7405C64.4408 18.7405 65.0608 18.4205 65.2408 17.7405H68.4208L68.4131 17.7805H70.8011C70.9011 18.5005 71.5211 18.9805 72.3611 18.9805C73.0611 18.9805 73.5411 18.7005 73.5411 18.2605C73.5411 17.6289 72.7668 17.4927 71.8147 17.3252C70.2946 17.0578 68.3211 16.7106 68.3211 14.1405C68.3211 12.3205 69.9211 11.0005 71.9411 11.0005C74.4611 11.0005 76.1611 12.3405 76.2411 14.3805H73.4411C73.3411 13.7005 72.7611 13.2205 72.0811 13.2205C71.4611 13.2205 71.0411 13.4805 71.0411 14.0005C71.0411 14.6868 71.835 14.7844 72.8106 14.9043C74.1103 15.0641 75.7325 15.2636 76.2295 16.9476C76.1989 16.7053 76.1832 16.456 76.1832 16.2005C76.1832 13.1605 78.4032 11.0005 81.5032 11.0005C84.3232 11.0005 86.4432 12.7205 86.5832 15.1005H83.2632C83.1032 14.3405 82.4232 13.8005 81.6232 13.8005C80.4032 13.8005 79.6032 14.7405 79.6032 16.2005C79.6032 17.6605 80.4232 18.6005 81.6632 18.6005C82.4832 18.6005 83.1632 18.0405 83.3032 17.2805H86.6832C86.4232 19.5805 84.1432 21.4005 81.5032 21.4005C78.9134 21.4005 76.9378 19.893 76.3576 17.6242C76.3731 17.78 76.3811 17.9452 76.3811 18.1205C76.3811 20.1005 74.8011 21.4005 72.3611 21.4005C70.187 21.4005 68.6083 20.3435 68.1517 18.6406C67.4303 20.354 65.6698 21.4005 63.5408 21.4005C60.4806 21.4005 58.8354 19.3852 58.3997 17.3241C57.9788 19.8749 56.1066 21.4005 53.6488 21.4005C52.6088 21.4005 51.7688 21.1605 51.2688 20.6405V25.3205H47.9688ZM53.1888 18.6005C54.4288 18.6005 55.2688 17.6405 55.2688 16.2005C55.2688 14.7605 54.4288 13.8005 53.1888 13.8005C51.9288 13.8005 51.0888 14.7605 51.0888 16.2005C51.0888 17.6405 51.9288 18.6005 53.1888 18.6005ZM61.4408 15.0205C61.6608 13.8005 62.2808 13.3405 63.3408 13.3405C64.4808 13.3405 65.1008 14.1605 65.1608 15.0205H61.4408ZM100.03 17.7405C99.8499 18.4205 99.2299 18.7405 98.3299 18.7405C97.1299 18.7405 96.4299 18.1005 96.2299 16.9805H103.065C103.384 19.1551 105.037 21.4005 108.267 21.4005C110.747 21.4005 112.727 19.9805 113.147 17.7405H109.967C109.787 18.4205 109.167 18.7405 108.267 18.7405C107.067 18.7405 106.367 18.1005 106.167 16.9805H113.107C113.127 16.7405 113.147 16.4605 113.147 16.0005C113.147 13.8805 111.887 11.0005 108.067 11.0005C105.033 11.0005 103.53 12.982 103.124 15.0249C102.783 13.0938 101.387 11.0005 98.1299 11.0005C95.824 11.0005 94.4026 12.1448 93.6745 13.5908V11.1606H92.6145C91.4945 11.1606 90.7545 11.4806 90.1745 12.6806V11.1606H86.8745V21.2406H90.1745V16.1406C90.1745 14.7206 90.8145 13.8806 91.9145 13.8806H93.5394C93.2183 14.6274 93.0699 15.4366 93.0699 16.2005C93.0699 18.5805 94.7099 21.4005 98.3299 21.4005C100.81 21.4005 102.79 19.9805 103.21 17.7405H100.03ZM96.2299 15.0205C96.4499 13.8005 97.0699 13.3405 98.1299 13.3405C99.2699 13.3405 99.8899 14.1605 99.9499 15.0205H96.2299ZM108.067 13.3405C107.007 13.3405 106.387 13.8005 106.167 15.0205H109.887C109.827 14.1605 109.207 13.3405 108.067 13.3405ZM113.445 11.1605V21.2405H116.745V15.6805C116.745 14.6805 117.445 13.9205 118.445 13.9205C119.445 13.9205 120.145 14.6805 120.145 15.6805V21.2405H123.445V14.9005C123.445 12.6605 121.965 11.0005 119.705 11.0005C118.385 11.0005 117.325 11.5405 116.745 12.3205V11.1605H113.445ZM129.002 18.7405C129.902 18.7405 130.522 18.4205 130.702 17.7405H133.882C133.462 19.9805 131.482 21.4005 129.002 21.4005C125.382 21.4005 123.742 18.5805 123.742 16.2005C123.742 13.8205 125.182 11.0005 128.802 11.0005C132.622 11.0005 133.882 13.8805 133.882 16.0005C133.882 16.4605 133.862 16.7405 133.842 16.9805H126.902C127.102 18.1005 127.802 18.7405 129.002 18.7405ZM128.802 13.3405C127.742 13.3405 127.122 13.8005 126.902 15.0205H130.622C130.562 14.1605 129.942 13.3405 128.802 13.3405ZM140.979 13.8806H139.219C138.119 13.8806 137.479 14.7206 137.479 16.1406V21.2406H134.179V11.1606H137.479V12.6806C138.059 11.4806 138.799 11.1606 139.919 11.1606H140.979V13.8806ZM47.08 14.7606C47.08 12.4806 45.12 11.0006 42.6 11.0006C39.62 11.0006 38.08 12.7006 38 14.7406H40.88C40.9 14.0206 41.3 13.3406 42.4 13.3406C43.3 13.3406 43.8 13.7606 43.8 14.3606C43.8 14.8406 43.52 15.2006 43 15.2006H41.56C39.44 15.2006 38 16.4006 38 18.3806C38 20.0606 39.34 21.4006 41.22 21.4006C42.52 21.4006 43.54 20.8406 43.8 20.0006V21.2406H47.08V14.7606ZM43.8 17.2006V17.2806C43.8 18.2206 43.2 19.1006 42.14 19.1006C41.56 19.1006 41.12 18.7406 41.12 18.2206C41.12 17.6206 41.54 17.2006 42.12 17.2006H43.8Z" fill="white"/>
<path fill-rule="evenodd" clip-rule="evenodd" d="M31.996 18.304C31.9964 17.541 31.9968 16.778 31.9968 16.0149C31.9968 16.0143 31.9966 16.0137 31.9964 16.0132C31.9961 16.0127 31.996 16.0121 31.996 16.0115C31.996 15.2158 31.9957 14.4201 31.9954 13.6245C31.9948 11.6343 31.9941 9.64432 31.9976 7.6539C31.9992 6.62391 31.8237 5.63316 31.4247 4.68085C31.0953 3.89594 30.653 3.18632 30.0857 2.55038C29.5273 1.92485 28.8967 1.38583 28.1539 0.997378C27.7028 0.761905 27.2341 0.54245 26.7493 0.393477C26.206 0.226083 25.6404 0.0851192 25.0763 0.041869C24.4394 -0.00677224 23.7977 -0.00192761 23.1564 0.0029143C22.9635 0.00437084 22.7706 0.00582712 22.5779 0.00582712C22.2278 0.00564238 21.8776 0.00545291 21.5274 0.00526343C17.3231 0.00298851 13.1182 0.00071328 8.91403 0.00662807C8.75801 0.00692149 8.60202 0.00587124 8.44606 0.00482116C7.75058 0.000138598 7.05563 -0.00454038 6.36121 0.109948C5.61844 0.23249 4.91093 0.450343 4.23867 0.769113C3.54638 1.09669 2.92861 1.54601 2.36533 2.06982C1.75396 2.63768 1.26439 3.29765 0.873378 4.02649C0.578514 4.57593 0.332527 5.1534 0.231568 5.77652C0.208283 5.92042 0.181928 6.06448 0.155555 6.20863C0.0775613 6.63495 -0.000595366 7.06215 3.41881e-06 7.48891C0.00061724 7.95829 0.0788189 8.42814 0.156799 8.89666C0.180612 9.03973 0.204403 9.18267 0.225959 9.32544C0.311694 9.88929 0.541656 10.4075 0.785239 10.9169C1.0761 11.5248 1.44868 12.0846 1.91101 12.574C2.24353 12.9256 2.59529 13.266 2.97509 13.5656C3.59366 14.0541 4.28034 14.4394 5.03753 14.666C5.56957 14.8254 6.11443 14.9672 6.66409 15.0401C7.15606 15.1049 7.66406 15.0953 8.16165 15.0641C8.61035 15.0361 9.06627 14.976 9.49895 14.8559C9.98131 14.7221 10.4484 14.5235 10.9076 14.32C11.5069 14.0541 12.0558 13.6945 12.5261 13.2404C13.063 12.7227 13.5923 12.1968 14.1217 11.6708C14.5989 11.1968 15.0761 10.7227 15.5589 10.2545C15.733 10.0857 15.9008 9.90982 16.0687 9.73385C16.543 9.23682 17.0178 8.7393 17.635 8.40037C18.0941 8.14807 18.5756 7.95585 19.0949 7.90139C19.7319 7.83411 20.3769 7.79567 20.9914 8.03354L21.0325 8.04943C21.4191 8.19879 21.8115 8.35038 22.1613 8.56696C22.8407 8.98745 23.3415 9.57773 23.7037 10.301C23.9914 10.8752 24.1324 11.4751 24.1652 12.1023C24.1901 12.5884 24.1148 13.0658 23.9641 13.5359C23.7678 14.1478 23.485 14.7125 23.0411 15.169C22.3604 15.8683 21.667 16.5556 20.9738 17.2427C20.6705 17.5433 20.3673 17.8438 20.0652 18.1453C19.9468 18.2633 19.8269 18.38 19.707 18.4968C19.4168 18.7791 19.1266 19.0615 18.8585 19.3635C18.2607 20.0379 17.78 20.7891 17.4451 21.6341C17.1951 22.2645 17.0172 22.9124 16.9483 23.5796C16.8473 24.5575 16.9018 25.529 17.1822 26.4854C17.3513 27.0612 17.5612 27.6163 17.8521 28.1369C18.3649 29.0539 19.0484 29.8284 19.8833 30.466C20.5379 30.965 21.2486 31.3646 22.0427 31.5937C22.4626 31.7146 22.8896 31.8276 23.3207 31.8892C23.7991 31.9573 24.2886 32.0094 24.7686 31.9821C25.3094 31.9517 25.8479 31.8468 26.3799 31.7354C27.1828 31.5673 27.9135 31.2132 28.5962 30.7671C29.1891 30.3795 29.7148 29.9109 30.1795 29.3735C30.8638 28.5838 31.3573 27.6851 31.6666 26.6936C31.8966 25.9551 32.0024 25.1919 32 24.4117C31.9941 22.3758 31.9951 20.3399 31.996 18.304ZM7.49949 31.9997C11.6524 32.0389 15.1123 28.719 15.0858 24.4517C15.1411 20.3477 11.7927 16.8901 7.54356 16.9077C3.38262 16.9254 0.0357484 20.1435 0.00129419 24.3932C-0.03316 28.635 3.27765 31.9596 7.49949 31.9997Z" fill="url(#paint0_linear_162_1061)"/>
<defs>
<linearGradient id="paint0_linear_162_1061" x1="1.64488" y1="33.4589" x2="27.3186" y2="3.64051" gradientUnits="userSpaceOnUse">
<stop stop-color="#FF0080"/>
<stop offset="0.495" stop-color="#FF8C00"/>
<stop offset="1" stop-color="#8FFF00"/>
</linearGradient>
</defs>
</svg>
