<svg width="82" height="16" viewBox="0 0 82 16" fill="none" xmlns="http://www.w3.org/2000/svg">
<g clip-path="url(#clip0_162_1078)">
<path d="M36.1563 15.563C34.6771 15.563 33.4075 15.2294 32.3459 14.563C31.2843 13.8966 30.4683 12.999 29.8979 11.871C29.3267 10.743 29.0411 9.49104 29.0411 8.11344C29.0411 6.73664 29.3331 5.48464 29.9195 4.35584C30.5051 3.22864 31.3355 2.33104 32.4115 1.66384C33.4875 0.997437 34.7507 0.663837 36.1995 0.663837C37.7667 0.663837 39.1243 1.04864 40.2731 1.81744C41.4227 2.58624 42.2683 3.57984 42.8099 4.79504H41.0091C40.5699 4.01904 39.9579 3.40384 39.1747 2.94944C38.3915 2.49584 37.4435 2.26864 36.3307 2.26864C35.1595 2.26864 34.1499 2.52864 33.3003 3.04864C32.4515 3.56864 31.8027 4.26864 31.3571 5.14704C30.9099 6.02624 30.6867 7.01504 30.6867 8.11344C30.6867 9.21184 30.9067 10.183 31.3459 11.0694C31.7843 11.955 32.4251 12.659 33.2667 13.179C34.1091 13.699 35.1155 13.959 36.2867 13.959C37.1651 13.959 37.9963 13.7686 38.7787 13.3878C39.5619 13.007 40.1987 12.4574 40.6899 11.7398C41.1803 11.0222 41.4259 10.1574 41.4259 9.14624H36.1107V7.65184H42.9411V15.387H41.4259V12.8166C41.1179 13.2854 40.7227 13.7278 40.2395 14.1462C39.7563 14.5638 39.1747 14.9038 38.4931 15.1678C37.8123 15.431 37.0331 15.563 36.1547 15.563H36.1563ZM50.0179 15.563C48.9483 15.563 48.0155 15.3102 47.2179 14.8046C46.4195 14.2998 45.8011 13.615 45.3619 12.7502C44.9235 11.8862 44.7035 10.9342 44.7035 9.89424C44.7035 8.85424 44.9235 7.88304 45.3619 7.02624C45.8011 6.16864 46.4203 5.48784 47.2179 4.98224C48.0155 4.47664 48.9483 4.22384 50.0179 4.22384C50.9251 4.22384 51.7051 4.39984 52.3563 4.75184C53.0075 5.10304 53.5387 5.57984 53.9483 6.17984V4.40064H55.5955V15.3878H53.9483V13.6294C53.5387 14.2158 53.0075 14.6846 52.3563 15.0358C51.7051 15.3878 50.9251 15.5638 50.0179 15.5638V15.563ZM50.2371 14.0686C51.0571 14.0686 51.7491 13.8782 52.3131 13.4966C52.8763 13.1158 53.3043 12.607 53.5979 11.9702C53.8899 11.3326 54.0371 10.6406 54.0371 9.89344C54.0371 9.14624 53.8899 8.43504 53.5979 7.80544C53.3043 7.17584 52.8763 6.67024 52.3131 6.28944C51.7491 5.90864 51.0571 5.71824 50.2371 5.71824C49.4171 5.71824 48.7363 5.90864 48.1507 6.28944C47.5651 6.67024 47.1187 7.17584 46.8115 7.80544C46.5035 8.43504 46.3499 9.13104 46.3499 9.89344C46.3499 10.655 46.5035 11.3326 46.8115 11.9702C47.1195 12.6078 47.5651 13.1166 48.1507 13.4966C48.7363 13.8782 49.4323 14.0686 50.2371 14.0686ZM57.9763 15.387V0.00463706H59.6235V15.387H57.9763ZM60.7555 15.387L64.9947 9.71824L61.0195 4.39984H63.1283L65.9611 8.55264L68.7723 4.39984H70.8803L66.9059 9.71824L71.1659 15.387H69.0571L65.9611 10.9046L62.8419 15.387H60.7555ZM76.6227 15.563C75.5099 15.563 74.5363 15.3102 73.7019 14.8046C72.8675 14.2998 72.2195 13.615 71.7587 12.7502C71.2971 11.8862 71.0667 10.9342 71.0667 9.89424C71.0667 8.85424 71.2867 7.88304 71.7251 7.02624C72.1643 6.16864 72.7939 5.48784 73.6139 4.98224C74.4339 4.47664 75.4003 4.22384 76.5131 4.22384C77.6259 4.22384 78.6099 4.47664 79.4227 4.98224C80.2355 5.48784 80.8611 6.16864 81.3003 7.02624C81.7395 7.88304 81.9595 8.83824 81.9595 9.89424V10.5526H72.7571C72.8451 11.1982 73.0539 11.787 73.3835 12.3214C73.7131 12.8566 74.1555 13.2814 74.7123 13.5958C75.2683 13.911 75.9131 14.0686 76.6451 14.0686C77.4211 14.0686 78.0723 13.8966 78.5995 13.5526C79.1267 13.2078 79.5355 12.7646 79.8291 12.223H81.6299C81.2491 13.2046 80.6451 14.0062 79.8179 14.6294C78.9907 15.2518 77.9259 15.563 76.6227 15.563ZM72.7795 9.01424H80.2459C80.0995 8.07744 79.7043 7.29344 79.0603 6.66304C78.4155 6.03344 77.5659 5.71824 76.5123 5.71824C75.4587 5.71824 74.6123 6.03344 73.9763 6.66304C73.3387 7.29344 72.9403 8.07744 72.7795 9.01424ZM17.6907 1.89024L2.08114 10.9078L16.5835 0.198237C17.0691 -0.160163 17.7587 -0.0161629 18.0603 0.507037C18.3395 0.991837 18.1739 1.61104 17.6899 1.89104L17.6907 1.89024ZM19.9211 9.69504C19.7115 9.33184 19.2475 9.20784 18.8851 9.41744L8.55074 15.387L19.5563 10.7742C19.9779 10.5982 20.1491 10.091 19.9211 9.69504ZM25.1347 1.69264C24.6979 0.935037 23.7131 0.700637 22.9827 1.17984L0.406738 15.9782L24.5019 3.81424C25.2827 3.41984 25.5723 2.45024 25.1347 1.69264Z" fill="white"/>
</g>
<defs>
<clipPath id="clip0_162_1078">
<rect width="81.6" height="16" fill="white" transform="translate(0.406738)"/>
</clipPath>
</defs>
</svg>
