<svg width="24" height="25" viewBox="0 0 24 25" fill="none" xmlns="http://www.w3.org/2000/svg">
<path fill-rule="evenodd" clip-rule="evenodd" d="M22.9999 2.93796L19.5229 21.9365C19.5229 21.9365 19.036 23.2553 17.6969 22.6206L12.6498 18.4278L12.7439 18.5077L9.57129 21.648C9.57129 21.648 9.32021 21.8541 9.05392 21.7222L9.24045 19.9364L9.69228 15.7959C9.69228 15.7959 18.594 7.12503 18.9592 6.75413C19.3244 6.39147 19.2026 6.30904 19.2026 6.30904C19.2331 5.86396 18.5483 6.30904 18.5483 6.30904L6.74809 14.4276L1.83362 12.6392C1.83362 12.6392 1.08039 12.3507 1.00431 11.716C0.928229 11.0814 1.85644 10.7434 1.85644 10.7434L21.3945 2.44343C21.3945 2.43518 22.9999 1.66865 22.9999 2.93796Z" fill="#790FFF"/>
<path fill-rule="evenodd" clip-rule="evenodd" d="M22.9999 2.93796L19.5229 21.9365C19.5229 21.9365 19.036 23.2553 17.6969 22.6206L12.6498 18.4278L12.7439 18.5077L9.57129 21.648C9.57129 21.648 9.32021 21.8541 9.05392 21.7222L9.24045 19.9364L9.69228 15.7959C9.69228 15.7959 18.594 7.12503 18.9592 6.75413C19.3244 6.39147 19.2026 6.30904 19.2026 6.30904C19.2331 5.86396 18.5483 6.30904 18.5483 6.30904L6.74809 14.4276L1.83362 12.6392C1.83362 12.6392 1.08039 12.3507 1.00431 11.716C0.928229 11.0814 1.85644 10.7434 1.85644 10.7434L21.3945 2.44343C21.3945 2.43518 22.9999 1.66865 22.9999 2.93796Z" fill="white"/>
</svg>
