<svg width="56" height="56" viewBox="0 0 56 56" fill="none" xmlns="http://www.w3.org/2000/svg">
<g clip-path="url(#clip0_86_2006)">
<path d="M54.3069 14.2023C52.8369 8.79156 47.2095 3.16312 41.7977 1.69313C38.4792 0.86625 34.0342 0.0142187 28 0C21.9658 0.0142187 17.5208 0.86625 14.2023 1.69313C8.79156 3.16312 3.16312 8.79047 1.69313 14.2023C0.86625 17.5208 0.0142187 21.9658 0 28C0.0142187 34.0342 0.86625 38.4792 1.69313 41.7977C3.16312 47.2095 8.79156 52.8369 14.2023 54.3069C17.5208 55.1337 21.968 55.9858 28 56C34.0331 55.9858 38.4792 55.1337 41.7977 54.3069C47.2095 52.8369 52.8369 47.2095 54.3069 41.7977C55.1337 38.4792 55.9858 34.032 56 28C55.9858 21.9658 55.1337 17.5208 54.3069 14.2023Z" fill="#DFFFEA"/>
<path d="M44.9848 24.312C44.2141 23.5624 43.4416 22.8103 42.6672 22.0556C42.6453 21.0078 42.618 19.9593 42.5852 18.91C42.5414 17.5067 41.9355 16.168 40.8942 15.1267C39.8913 14.1031 38.5362 13.5 37.1044 13.4402C36.0529 13.4073 35.0022 13.38 33.9522 13.3581C33.1924 12.5881 32.4403 11.8178 31.6958 11.047C31.2234 10.5394 30.6515 10.1345 30.0157 9.8577C29.38 9.58086 28.694 9.43799 28.0005 9.43799C27.3071 9.43799 26.6211 9.58086 25.9854 9.8577C25.3496 10.1345 24.7777 10.5394 24.3053 11.047C23.5601 11.8185 22.8065 12.5907 22.0445 13.3636C20.9945 13.384 19.9445 13.411 18.8945 13.4445C16.0016 13.543 13.5122 16.0269 13.4137 18.9133C13.3809 19.9611 13.3536 21.0096 13.3317 22.0589C12.5581 22.8151 11.7855 23.5665 11.0141 24.3131C9.98484 25.3139 9.40625 26.6177 9.40625 28.0002C9.41079 28.6917 9.55563 29.3751 9.83199 30.0091C10.1084 30.643 10.5105 31.2143 11.0141 31.6883C11.7855 32.4342 12.5581 33.1849 13.3317 33.9403C13.3536 34.9903 13.3809 36.0399 13.4137 37.0892C13.4575 38.4947 14.0634 39.8302 15.1036 40.8725C16.107 41.896 17.4625 42.4991 18.8945 42.5591C19.946 42.5919 20.9967 42.6192 22.0467 42.6411C22.8072 43.4126 23.5594 44.1833 24.3031 44.9533C24.776 45.4607 25.3482 45.8654 25.9842 46.1421C26.6202 46.4187 27.3064 46.5615 28 46.5615C28.6936 46.5615 29.3798 46.4187 30.0158 46.1421C30.6518 45.8654 31.224 45.4607 31.6969 44.9533C32.445 44.184 33.1979 43.4129 33.9555 42.64C35.0055 42.6189 36.0555 42.5919 37.1055 42.5591C39.9973 42.4606 42.4878 39.9745 42.5863 37.0903C42.6191 36.0425 42.6464 34.9943 42.6683 33.9458C43.4419 33.1904 44.2145 32.4375 44.9859 31.6872C45.489 31.213 45.8908 30.6418 46.1671 30.0082C46.4434 29.3745 46.5886 28.6914 46.5938 28.0002C46.5938 26.6155 46.0152 25.3117 44.9848 24.312Z" fill="url(#paint0_linear_86_2006)"/>
<path d="M37.2454 25.6476C34.1129 28.9026 30.9301 32.2309 27.8009 35.5318C27.5464 35.8011 27.2397 36.0157 26.8995 36.1626C26.5594 36.3095 26.1928 36.3855 25.8223 36.386H25.8125C25.4422 36.3834 25.0763 36.3067 24.7361 36.1606C24.396 36.0145 24.0884 35.8018 23.8317 35.5351C22.1593 33.808 20.475 32.0821 18.8004 30.3704C18.5457 30.1143 18.3447 29.8099 18.2093 29.4751C18.0739 29.1402 18.0068 28.7817 18.012 28.4205C18.0172 28.0594 18.0946 27.7029 18.2395 27.3721C18.3845 27.0412 18.5942 26.7427 18.8562 26.4941C19.3838 25.9837 20.0918 25.7025 20.8258 25.7117C21.5598 25.7209 22.2605 26.0199 22.7751 26.5434C23.7748 27.5686 24.7767 28.5971 25.7807 29.6288C28.2657 27.0257 30.7617 24.4084 33.2182 21.8271C34.2617 20.7334 36.0018 20.7115 37.1207 21.7702C38.2396 22.829 38.2965 24.556 37.2454 25.6476Z" fill="url(#paint1_linear_86_2006)"/>
</g>
<defs>
<linearGradient id="paint0_linear_86_2006" x1="40.88" y1="40.8813" x2="15.1189" y2="15.1213" gradientUnits="userSpaceOnUse">
<stop stop-color="#1FDA48"/>
<stop offset="0.54" stop-color="#15D13E"/>
<stop offset="1" stop-color="#8CFB7A"/>
</linearGradient>
<linearGradient id="paint1_linear_86_2006" x1="32.5762" y1="30.7576" x2="23.5801" y2="21.7615" gradientUnits="userSpaceOnUse">
<stop stop-color="#BCEDBE"/>
<stop offset="0.57" stop-color="white"/>
<stop offset="1" stop-color="white"/>
</linearGradient>
<clipPath id="clip0_86_2006">
<rect width="56" height="56" fill="white"/>
</clipPath>
</defs>
</svg>
