<svg width="165" height="48" viewBox="0 0 165 48" fill="none" xmlns="http://www.w3.org/2000/svg">
<path fill-rule="evenodd" clip-rule="evenodd" d="M59.08 22.76C59.08 20.48 57.12 19 54.6 19C51.62 19 50.08 20.7 50 22.74H52.88C52.9 22.02 53.3 21.34 54.4 21.34C55.3 21.34 55.8 21.76 55.8 22.36C55.8 22.84 55.52 23.2 55 23.2H53.56C51.44 23.2 50 24.4 50 26.38C50 28.06 51.34 29.4 53.22 29.4C54.52 29.4 55.54 28.84 55.8 28V29.24H59.08V22.76ZM55.8 25.2V25.28C55.8 26.22 55.2 27.1 54.14 27.1C53.56 27.1 53.12 26.74 53.12 26.22C53.12 25.62 53.54 25.2 54.12 25.2H55.8ZM59.9688 33.32V19.16H63.2688V20.02C63.8488 19.38 64.7087 19 65.9487 19C68.2999 19 69.9989 20.5014 70.3987 23.0155C70.808 20.9758 72.3107 19 75.3408 19C79.1608 19 80.4208 21.88 80.4208 24C80.4208 24.46 80.4008 24.74 80.3808 24.98H73.4408C73.6408 26.1 74.3408 26.74 75.5408 26.74C76.4408 26.74 77.0608 26.42 77.2408 25.74H80.4208L80.4131 25.78H82.801C82.901 26.5 83.521 26.98 84.361 26.98C85.061 26.98 85.541 26.7 85.541 26.26C85.541 25.6284 84.7667 25.4922 83.8146 25.3247C82.2945 25.0573 80.321 24.7101 80.321 22.14C80.321 20.32 81.921 19 83.941 19C86.461 19 88.161 20.34 88.241 22.38H85.441C85.341 21.7 84.761 21.22 84.081 21.22C83.461 21.22 83.041 21.48 83.041 22C83.041 22.6863 83.8349 22.7839 84.8105 22.9039C86.1102 23.0636 87.7324 23.2631 88.2294 24.9471C88.1988 24.7048 88.1831 24.4555 88.1831 24.2C88.1831 21.16 90.4031 19 93.5031 19C96.3231 19 98.4431 20.72 98.5831 23.1H95.2631C95.1031 22.34 94.4231 21.8 93.6231 21.8C92.4031 21.8 91.6031 22.74 91.6031 24.2C91.6031 25.66 92.4231 26.6 93.6631 26.6C94.4831 26.6 95.1631 26.04 95.3031 25.28H98.6831C98.4231 27.58 96.1431 29.4 93.5031 29.4C90.9133 29.4 88.9377 27.8925 88.3575 25.6237C88.373 25.7795 88.381 25.9447 88.381 26.12C88.381 28.1 86.801 29.4 84.361 29.4C82.1869 29.4 80.6083 28.3431 80.1516 26.6402C79.4302 28.3536 77.6697 29.4 75.5408 29.4C72.4806 29.4 70.8353 27.3847 70.3997 25.3237C69.9788 27.8744 68.1066 29.4 65.6488 29.4C64.6088 29.4 63.7688 29.16 63.2688 28.64V33.32H59.9688ZM65.1888 26.6C66.4287 26.6 67.2688 25.64 67.2688 24.2C67.2688 22.76 66.4287 21.8 65.1888 21.8C63.9288 21.8 63.0887 22.76 63.0887 24.2C63.0887 25.64 63.9288 26.6 65.1888 26.6ZM73.4408 23.02C73.6608 21.8 74.2808 21.34 75.3408 21.34C76.4808 21.34 77.1008 22.16 77.1608 23.02H73.4408ZM112.03 25.74C111.85 26.42 111.23 26.74 110.33 26.74C109.13 26.74 108.43 26.1 108.23 24.98H115.065C115.383 27.1546 117.037 29.4 120.267 29.4C122.747 29.4 124.727 27.98 125.147 25.74H121.967C121.787 26.42 121.167 26.74 120.267 26.74C119.067 26.74 118.367 26.1 118.167 24.98H125.107C125.127 24.74 125.147 24.46 125.147 24C125.147 21.88 123.887 19 120.067 19C117.033 19 115.53 20.9815 115.123 23.0244C114.783 21.0933 113.387 19 110.13 19C107.824 19 106.403 20.1442 105.675 21.5901V19.1599H104.615C103.495 19.1599 102.755 19.4799 102.175 20.6799V19.1599H98.8745V29.2399H102.175V24.1399C102.175 22.7199 102.815 21.8799 103.915 21.8799H105.539C105.218 22.6267 105.07 23.436 105.07 24.2C105.07 26.58 106.71 29.4 110.33 29.4C112.81 29.4 114.79 27.98 115.21 25.74H112.03ZM108.23 23.02C108.45 21.8 109.07 21.34 110.13 21.34C111.27 21.34 111.89 22.16 111.95 23.02H108.23ZM120.067 21.34C119.007 21.34 118.387 21.8 118.167 23.02H121.887C121.827 22.16 121.207 21.34 120.067 21.34ZM128.745 19.16H125.445V29.24H128.745V23.68C128.745 22.68 129.445 21.92 130.445 21.92C131.445 21.92 132.145 22.68 132.145 23.68V29.24H135.445V22.9C135.445 20.66 133.965 19 131.705 19C130.385 19 129.325 19.54 128.745 20.32V19.16ZM141.002 26.74C141.902 26.74 142.522 26.42 142.702 25.74H145.882C145.462 27.98 143.482 29.4 141.002 29.4C137.382 29.4 135.742 26.58 135.742 24.2C135.742 21.82 137.182 19 140.802 19C144.622 19 145.882 21.88 145.882 24C145.882 24.46 145.862 24.74 145.842 24.98H138.902C139.102 26.1 139.802 26.74 141.002 26.74ZM140.802 21.34C139.742 21.34 139.122 21.8 138.902 23.02H142.622C142.562 22.16 141.942 21.34 140.802 21.34ZM152.979 21.8799H151.219C150.119 21.8799 149.479 22.7199 149.479 24.1399V29.2399H146.179V19.1599H149.479V20.6799C150.059 19.4799 150.799 19.1599 151.919 19.1599H152.979V21.8799Z" fill="white"/>
<g filter="url(#filter0_dii_48_31)">
<path fill-rule="evenodd" clip-rule="evenodd" d="M43.996 26.304C43.9964 25.541 43.9968 24.778 43.9968 24.0149C43.9968 24.0143 43.9966 24.0137 43.9964 24.0132C43.9961 24.0127 43.996 24.0121 43.996 24.0115C43.996 23.2158 43.9957 22.4201 43.9954 21.6245C43.9948 19.6343 43.9941 17.6443 43.9976 15.6539C43.9992 14.6239 43.8237 13.6332 43.4247 12.6809C43.0953 11.8959 42.653 11.1863 42.0857 10.5504C41.5273 9.92485 40.8967 9.38583 40.1539 8.99738C39.7028 8.7619 39.2341 8.54245 38.7493 8.39348C38.206 8.22608 37.6404 8.08512 37.0763 8.04187C36.4394 7.99323 35.7977 7.99807 35.1564 8.00291C34.9635 8.00437 34.7706 8.00583 34.5779 8.00583C34.2278 8.00564 33.8776 8.00545 33.5274 8.00526C29.3231 8.00299 25.1182 8.00071 20.914 8.00663C20.758 8.00692 20.602 8.00587 20.4461 8.00482C19.7506 8.00014 19.0556 7.99546 18.3612 8.10995C17.6184 8.23249 16.9109 8.45034 16.2387 8.76911C15.5464 9.09669 14.9286 9.54601 14.3653 10.0698C13.754 10.6377 13.2644 11.2976 12.8734 12.0265C12.5785 12.5759 12.3325 13.1534 12.2316 13.7765C12.2083 13.9204 12.1819 14.0645 12.1556 14.2086C12.0776 14.6349 11.9994 15.0622 12 15.4889C12.0006 15.9583 12.0788 16.4281 12.1568 16.8967C12.1806 17.0397 12.2044 17.1827 12.226 17.3254C12.3117 17.8893 12.5417 18.4075 12.7852 18.9169C13.0761 19.5248 13.4487 20.0846 13.911 20.574C14.2435 20.9256 14.5953 21.266 14.9751 21.5656C15.5937 22.0541 16.2803 22.4394 17.0375 22.666C17.5696 22.8254 18.1144 22.9672 18.6641 23.0401C19.1561 23.1049 19.6641 23.0953 20.1616 23.0641C20.6104 23.0361 21.0663 22.976 21.499 22.8559C21.9813 22.7221 22.4484 22.5235 22.9076 22.32C23.5069 22.0541 24.0558 21.6945 24.5261 21.2404C25.063 20.7227 25.5923 20.1968 26.1217 19.6708C26.5989 19.1968 27.0761 18.7227 27.5589 18.2545C27.733 18.0857 27.9008 17.9098 28.0687 17.7339C28.543 17.2368 29.0178 16.7393 29.635 16.4004C30.0941 16.1481 30.5756 15.9559 31.0949 15.9014C31.7319 15.8341 32.3769 15.7957 32.9914 16.0335L33.0325 16.0494C33.4191 16.1988 33.8115 16.3504 34.1613 16.567C34.8407 16.9874 35.3415 17.5777 35.7037 18.301C35.9914 18.8752 36.1324 19.4751 36.1652 20.1023C36.1901 20.5884 36.1148 21.0658 35.9641 21.5359C35.7678 22.1478 35.485 22.7125 35.0411 23.169C34.3604 23.8683 33.667 24.5556 32.9738 25.2427C32.6705 25.5433 32.3673 25.8438 32.0652 26.1453C31.9468 26.2633 31.8269 26.38 31.707 26.4968C31.4168 26.7791 31.1266 27.0615 30.8585 27.3635C30.2607 28.0379 29.78 28.7891 29.4451 29.6341C29.1951 30.2645 29.0172 30.9124 28.9483 31.5796C28.8473 32.5575 28.9018 33.529 29.1822 34.4854C29.3513 35.0612 29.5612 35.6163 29.8521 36.1369C30.3649 37.0539 31.0484 37.8284 31.8833 38.466C32.5379 38.965 33.2486 39.3646 34.0427 39.5937C34.4626 39.7146 34.8896 39.8276 35.3207 39.8892C35.7991 39.9573 36.2886 40.0094 36.7686 39.9821C37.3094 39.9517 37.8479 39.8468 38.3799 39.7354C39.1828 39.5673 39.9135 39.2132 40.5962 38.7671C41.1891 38.3795 41.7148 37.9109 42.1795 37.3735C42.8638 36.5838 43.3573 35.6851 43.6666 34.6936C43.8966 33.9551 44.0024 33.1919 44 32.4117C43.9941 30.3758 43.9951 28.3399 43.996 26.304ZM19.4995 39.9997C23.6524 40.0389 27.1123 36.719 27.0858 32.4517C27.1411 28.3477 23.7927 24.8901 19.5436 24.9077C15.3826 24.9254 12.0357 28.1435 12.0013 32.3932C11.9668 36.635 15.2777 39.9596 19.4995 39.9997Z" fill="url(#paint0_linear_48_31)"/>
</g>
<defs>
<filter id="filter0_dii_48_31" x="11.6931" y="7.77198" width="32.6138" height="32.8418" filterUnits="userSpaceOnUse" color-interpolation-filters="sRGB">
<feFlood flood-opacity="0" result="BackgroundImageFix"/>
<feColorMatrix in="SourceAlpha" type="matrix" values="0 0 0 0 0 0 0 0 0 0 0 0 0 0 0 0 0 0 127 0" result="hardAlpha"/>
<feOffset dy="0.306879"/>
<feGaussianBlur stdDeviation="0.153439"/>
<feComposite in2="hardAlpha" operator="out"/>
<feColorMatrix type="matrix" values="0 0 0 0 0 0 0 0 0 0 0 0 0 0 0 0 0 0 0.25 0"/>
<feBlend mode="normal" in2="BackgroundImageFix" result="effect1_dropShadow_48_31"/>
<feBlend mode="normal" in="SourceGraphic" in2="effect1_dropShadow_48_31" result="shape"/>
<feColorMatrix in="SourceAlpha" type="matrix" values="0 0 0 0 0 0 0 0 0 0 0 0 0 0 0 0 0 0 127 0" result="hardAlpha"/>
<feOffset dx="0.228022" dy="0.228022"/>
<feGaussianBlur stdDeviation="0.313064"/>
<feComposite in2="hardAlpha" operator="arithmetic" k2="-1" k3="1"/>
<feColorMatrix type="matrix" values="0 0 0 0 1 0 0 0 0 1 0 0 0 0 1 0 0 0 0.6 0"/>
<feBlend mode="normal" in2="shape" result="effect2_innerShadow_48_31"/>
<feColorMatrix in="SourceAlpha" type="matrix" values="0 0 0 0 0 0 0 0 0 0 0 0 0 0 0 0 0 0 127 0" result="hardAlpha"/>
<feOffset dx="-0.114011" dy="-0.228022"/>
<feGaussianBlur stdDeviation="0.250451"/>
<feComposite in2="hardAlpha" operator="arithmetic" k2="-1" k3="1"/>
<feColorMatrix type="matrix" values="0 0 0 0 1 0 0 0 0 1 0 0 0 0 1 0 0 0 0.4 0"/>
<feBlend mode="normal" in2="effect2_innerShadow_48_31" result="effect3_innerShadow_48_31"/>
</filter>
<linearGradient id="paint0_linear_48_31" x1="13.6449" y1="41.4589" x2="39.3186" y2="11.6405" gradientUnits="userSpaceOnUse">
<stop stop-color="#FF0080"/>
<stop offset="0.495" stop-color="#FF8C00"/>
<stop offset="1" stop-color="#8FFF00"/>
</linearGradient>
</defs>
</svg>
